<svg width="279" height="64" viewBox="0 0 279 64" fill="none" xmlns="http://www.w3.org/2000/svg">
<path d="M1.30762 60V47.2031H5.69336C7.14062 47.2031 8.24219 47.4932 8.99805 48.0732C9.75391 48.6533 10.1318 49.5176 10.1318 50.666C10.1318 51.252 9.97363 51.7793 9.65723 52.248C9.34082 52.7168 8.87793 53.0801 8.26855 53.3379C8.95996 53.5254 9.49316 53.8799 9.86816 54.4014C10.249 54.917 10.4395 55.5381 10.4395 56.2646C10.4395 57.4658 10.0527 58.3887 9.2793 59.0332C8.51172 59.6777 7.41016 60 5.97461 60H1.30762ZM3.53125 54.2256V58.2246H6.00098C6.69824 58.2246 7.24316 58.0518 7.63574 57.7061C8.02832 57.3604 8.22461 56.8799 8.22461 56.2646C8.22461 54.9346 7.54492 54.2549 6.18555 54.2256H3.53125ZM3.53125 52.5908H5.71094C6.40234 52.5908 6.94141 52.4355 7.32812 52.125C7.7207 51.8086 7.91699 51.3633 7.91699 50.7891C7.91699 50.1562 7.73535 49.6992 7.37207 49.418C7.01465 49.1367 6.45508 48.9961 5.69336 48.9961H3.53125V52.5908ZM12.0566 55.1572C12.0566 54.2256 12.2412 53.3877 12.6104 52.6436C12.9795 51.8936 13.498 51.3193 14.166 50.9209C14.834 50.5166 15.6016 50.3145 16.4688 50.3145C17.752 50.3145 18.792 50.7275 19.5889 51.5537C20.3916 52.3799 20.8252 53.4756 20.8896 54.8408L20.8984 55.3418C20.8984 56.2793 20.7168 57.1172 20.3535 57.8555C19.9961 58.5938 19.4805 59.165 18.8066 59.5693C18.1387 59.9736 17.3652 60.1758 16.4863 60.1758C15.1445 60.1758 14.0693 59.7305 13.2607 58.8398C12.458 57.9434 12.0566 56.751 12.0566 55.2627V55.1572ZM14.1924 55.3418C14.1924 56.3203 14.3945 57.0879 14.7988 57.6445C15.2031 58.1953 15.7656 58.4707 16.4863 58.4707C17.207 58.4707 17.7666 58.1895 18.165 57.627C18.5693 57.0645 18.7715 56.2412 18.7715 55.1572C18.7715 54.1963 18.5635 53.4346 18.1475 52.8721C17.7373 52.3096 17.1777 52.0283 16.4688 52.0283C15.7715 52.0283 15.2178 52.3066 14.8076 52.8633C14.3975 53.4141 14.1924 54.2402 14.1924 55.3418ZM26.8926 60.1758C25.5391 60.1758 24.4404 59.751 23.5967 58.9014C22.7588 58.0459 22.3398 56.9092 22.3398 55.4912V55.2275C22.3398 54.2783 22.5215 53.4316 22.8848 52.6875C23.2539 51.9375 23.7695 51.3545 24.4316 50.9385C25.0938 50.5225 25.832 50.3145 26.6465 50.3145C27.9414 50.3145 28.9404 50.7275 29.6436 51.5537C30.3525 52.3799 30.707 53.5488 30.707 55.0605V55.9219H24.4932C24.5576 56.707 24.8184 57.3281 25.2754 57.7852C25.7383 58.2422 26.3184 58.4707 27.0156 58.4707C27.9941 58.4707 28.791 58.0752 29.4062 57.2842L30.5576 58.3828C30.1768 58.9512 29.667 59.3936 29.0283 59.71C28.3955 60.0205 27.6836 60.1758 26.8926 60.1758ZM26.6377 52.0283C26.0518 52.0283 25.5771 52.2334 25.2139 52.6436C24.8564 53.0537 24.6279 53.625 24.5283 54.3574H28.5977V54.1992C28.5508 53.4844 28.3604 52.9453 28.0264 52.582C27.6924 52.2129 27.2295 52.0283 26.6377 52.0283ZM40.4277 60H38.292V56.1592H34.5918V60H32.4561V50.4902H34.5918V54.4541H38.292V50.4902H40.4277V60ZM50.7637 60H48.6279V56.1592H44.9277V60H42.792V50.4902H44.9277V54.4541H48.6279V50.4902H50.7637V60ZM55.3428 53.5137H57.4346C58.2139 53.5137 58.8936 53.6484 59.4736 53.918C60.0537 54.1875 60.4932 54.5654 60.792 55.0518C61.0967 55.5381 61.249 56.1035 61.249 56.748C61.249 57.7266 60.9033 58.5117 60.2119 59.1035C59.5205 59.6953 58.6006 59.9941 57.4521 60H53.207V50.4902H55.3428V53.5137ZM64.9668 60H62.8311V50.4902H64.9668V60ZM55.3428 55.2275V58.2949H57.4258C57.9473 58.2949 58.3574 58.166 58.6562 57.9082C58.9609 57.6445 59.1133 57.2725 59.1133 56.792C59.1133 56.3115 58.9639 55.9336 58.665 55.6582C58.3721 55.377 57.9736 55.2334 57.4697 55.2275H55.3428ZM73.4658 50.4902H75.5928V60H73.4658V53.6543L69.7393 60H67.6123V50.4902H69.7393V56.8359L73.4658 50.4902ZM74.4678 46.8428C74.4678 47.5811 74.21 48.1787 73.6943 48.6357C73.1787 49.0928 72.4902 49.3213 71.6289 49.3213C70.7676 49.3213 70.0791 49.0928 69.5635 48.6357C69.0479 48.1787 68.79 47.5811 68.79 46.8428H70.3896C70.3896 47.2295 70.498 47.5312 70.7148 47.748C70.9375 47.959 71.2422 48.0645 71.6289 48.0645C72.0156 48.0645 72.3174 47.959 72.5342 47.748C72.751 47.5312 72.8594 47.2295 72.8594 46.8428H74.4678ZM86.8252 51.0176C88.0205 51.0176 88.9785 51.4189 89.6992 52.2217C90.4199 53.0186 90.7803 54.1025 90.7803 55.4736V55.5791C90.7803 56.9502 90.3877 58.0605 89.6025 58.9102C88.8232 59.7598 87.7627 60.1846 86.4209 60.1846C85.1143 60.1846 84.0596 59.751 83.2568 58.8838C82.4541 58.0166 82.0527 56.833 82.0527 55.333V54.7178C82.0527 52.667 82.416 51.0439 83.1426 49.8486C83.8691 48.6533 84.9531 47.9062 86.3945 47.6074C87.2031 47.4434 87.7246 47.2705 87.959 47.0889C88.1992 46.9014 88.3193 46.6494 88.3193 46.333H90.042C90.042 46.9248 89.9453 47.4053 89.752 47.7744C89.5586 48.1436 89.2627 48.4453 88.8643 48.6797C88.4658 48.9082 87.7803 49.125 86.8076 49.3301C85.917 49.5176 85.2373 49.8516 84.7686 50.332C84.3057 50.8125 83.9951 51.4775 83.8369 52.3271C84.6865 51.4541 85.6826 51.0176 86.8252 51.0176ZM86.4033 52.7314C85.7119 52.7314 85.1699 52.9658 84.7773 53.4346C84.3848 53.8975 84.1885 54.6123 84.1885 55.5791C84.1885 56.4932 84.3818 57.2051 84.7686 57.7148C85.1553 58.2246 85.7061 58.4795 86.4209 58.4795C87.1299 58.4795 87.6777 58.2246 88.0645 57.7148C88.457 57.1992 88.6533 56.4258 88.6533 55.3945C88.6533 54.5742 88.457 53.9268 88.0645 53.4521C87.6777 52.9717 87.124 52.7314 86.4033 52.7314ZM98.2334 50.4902H100.36V60H98.2334V53.6543L94.5068 60H92.3799V50.4902H94.5068V56.8359L98.2334 50.4902ZM110.714 50.4902V60H108.578V52.2129H105.889L105.713 55.5264C105.602 57.1201 105.294 58.2656 104.79 58.9629C104.292 59.6543 103.527 60 102.496 60H101.837L101.828 58.2246L102.268 58.1807C102.736 58.1162 103.076 57.832 103.287 57.3281C103.504 56.8184 103.642 55.8926 103.7 54.5508L103.876 50.4902H110.714ZM117.174 60.1758C115.82 60.1758 114.722 59.751 113.878 58.9014C113.04 58.0459 112.621 56.9092 112.621 55.4912V55.2275C112.621 54.2783 112.803 53.4316 113.166 52.6875C113.535 51.9375 114.051 51.3545 114.713 50.9385C115.375 50.5225 116.113 50.3145 116.928 50.3145C118.223 50.3145 119.222 50.7275 119.925 51.5537C120.634 52.3799 120.988 53.5488 120.988 55.0605V55.9219H114.774C114.839 56.707 115.1 57.3281 115.557 57.7852C116.02 58.2422 116.6 58.4707 117.297 58.4707C118.275 58.4707 119.072 58.0752 119.688 57.2842L120.839 58.3828C120.458 58.9512 119.948 59.3936 119.31 59.71C118.677 60.0205 117.965 60.1758 117.174 60.1758ZM116.919 52.0283C116.333 52.0283 115.858 52.2334 115.495 52.6436C115.138 53.0537 114.909 53.625 114.81 54.3574H118.879V54.1992C118.832 53.4844 118.642 52.9453 118.308 52.582C117.974 52.2129 117.511 52.0283 116.919 52.0283ZM130.032 52.1865H126.947V60H124.812V52.1865H121.762V50.4902H130.032V52.1865ZM143.146 53.0918C143.146 53.5137 143.017 53.9033 142.759 54.2607C142.507 54.6123 142.149 54.8936 141.687 55.1045C142.776 55.4854 143.321 56.2207 143.321 57.3105C143.321 58.1836 142.967 58.8809 142.258 59.4023C141.549 59.918 140.6 60.1758 139.41 60.1758C138.684 60.1758 138.021 60.0557 137.424 59.8154C136.826 59.5693 136.36 59.2236 136.026 58.7783C135.692 58.3271 135.525 57.7939 135.525 57.1787H137.652C137.652 57.5654 137.825 57.8906 138.171 58.1543C138.517 58.4121 138.953 58.541 139.48 58.541C140.002 58.541 140.415 58.4209 140.72 58.1807C141.03 57.9346 141.186 57.6152 141.186 57.2227C141.186 56.7598 141.051 56.4258 140.781 56.2207C140.512 56.0156 140.096 55.9131 139.533 55.9131H138.004V54.375H139.586C140.541 54.3633 141.019 53.9707 141.019 53.1973C141.019 52.8105 140.881 52.5088 140.605 52.292C140.33 52.0752 139.952 51.9668 139.472 51.9668C139.003 51.9668 138.607 52.084 138.285 52.3184C137.963 52.5469 137.802 52.8369 137.802 53.1885H135.675C135.675 52.3506 136.026 51.665 136.729 51.1318C137.433 50.5928 138.326 50.3232 139.41 50.3232C140.588 50.3232 141.505 50.5635 142.161 51.0439C142.817 51.5244 143.146 52.207 143.146 53.0918ZM150.818 60C150.725 59.8184 150.643 59.5225 150.572 59.1123C149.893 59.8213 149.061 60.1758 148.076 60.1758C147.121 60.1758 146.342 59.9033 145.738 59.3584C145.135 58.8135 144.833 58.1396 144.833 57.3369C144.833 56.3232 145.208 55.5469 145.958 55.0078C146.714 54.4629 147.792 54.1904 149.192 54.1904H150.502V53.5664C150.502 53.0742 150.364 52.6816 150.089 52.3887C149.813 52.0898 149.395 51.9404 148.832 51.9404C148.346 51.9404 147.947 52.0635 147.637 52.3096C147.326 52.5498 147.171 52.8574 147.171 53.2324H145.035C145.035 52.7109 145.208 52.2246 145.554 51.7734C145.899 51.3164 146.368 50.959 146.96 50.7012C147.558 50.4434 148.223 50.3145 148.955 50.3145C150.068 50.3145 150.956 50.5957 151.618 51.1582C152.28 51.7148 152.62 52.5 152.638 53.5137V57.8027C152.638 58.6582 152.758 59.3408 152.998 59.8506V60H150.818ZM148.472 58.4619C148.894 58.4619 149.289 58.3594 149.658 58.1543C150.033 57.9492 150.314 57.6738 150.502 57.3281V55.5352H149.351C148.56 55.5352 147.965 55.6729 147.566 55.9482C147.168 56.2236 146.969 56.6133 146.969 57.1172C146.969 57.5273 147.104 57.8555 147.373 58.1016C147.648 58.3418 148.015 58.4619 148.472 58.4619ZM158.254 56.2383H157.173V60H155.037V50.4902H157.173V54.2871H158.113L160.741 50.4902H163.378L159.941 55.043L163.668 60H160.891L158.254 56.2383ZM163.932 55.1572C163.932 54.2256 164.116 53.3877 164.485 52.6436C164.854 51.8936 165.373 51.3193 166.041 50.9209C166.709 50.5166 167.477 50.3145 168.344 50.3145C169.627 50.3145 170.667 50.7275 171.464 51.5537C172.267 52.3799 172.7 53.4756 172.765 54.8408L172.773 55.3418C172.773 56.2793 172.592 57.1172 172.229 57.8555C171.871 58.5938 171.355 59.165 170.682 59.5693C170.014 59.9736 169.24 60.1758 168.361 60.1758C167.02 60.1758 165.944 59.7305 165.136 58.8398C164.333 57.9434 163.932 56.751 163.932 55.2627V55.1572ZM166.067 55.3418C166.067 56.3203 166.27 57.0879 166.674 57.6445C167.078 58.1953 167.641 58.4707 168.361 58.4707C169.082 58.4707 169.642 58.1895 170.04 57.627C170.444 57.0645 170.646 56.2412 170.646 55.1572C170.646 54.1963 170.438 53.4346 170.022 52.8721C169.612 52.3096 169.053 52.0283 168.344 52.0283C167.646 52.0283 167.093 52.3066 166.683 52.8633C166.272 53.4141 166.067 54.2402 166.067 55.3418ZM182.635 60H180.499V56.1592H176.799V60H174.663V50.4902H176.799V54.4541H180.499V50.4902H182.635V60ZM192.971 60H190.835V56.1592H187.135V60H184.999V50.4902H187.135V54.4541H190.835V50.4902H192.971V60ZM197.55 53.5137H199.642C200.421 53.5137 201.101 53.6484 201.681 53.918C202.261 54.1875 202.7 54.5654 202.999 55.0518C203.304 55.5381 203.456 56.1035 203.456 56.748C203.456 57.7266 203.11 58.5117 202.419 59.1035C201.728 59.6953 200.808 59.9941 199.659 60H195.414V50.4902H197.55V53.5137ZM207.174 60H205.038V50.4902H207.174V60ZM197.55 55.2275V58.2949H199.633C200.154 58.2949 200.564 58.166 200.863 57.9082C201.168 57.6445 201.32 57.2725 201.32 56.792C201.32 56.3115 201.171 55.9336 200.872 55.6582C200.579 55.377 200.181 55.2334 199.677 55.2275H197.55ZM215.383 57.3721L218.195 50.4902H220.867V60H218.731V53.707L216.112 60H214.662L212.034 53.6719V60H209.898V50.4902H212.588L215.383 57.3721ZM235.817 60H233.682V52.2129H229.973V60H227.837V50.4902H235.817V60ZM241.416 56.9414L243.35 50.4902H245.626L241.847 61.4414C241.267 63.041 240.282 63.8408 238.894 63.8408C238.583 63.8408 238.24 63.7881 237.865 63.6826V62.0303L238.27 62.0566C238.809 62.0566 239.213 61.957 239.482 61.7578C239.758 61.5645 239.975 61.2363 240.133 60.7734L240.44 59.9561L237.101 50.4902H239.403L241.416 56.9414ZM254.345 52.1865H251.26V60H249.124V52.1865H246.074V50.4902H254.345V52.1865ZM259.398 60.1758C258.045 60.1758 256.946 59.751 256.103 58.9014C255.265 58.0459 254.846 56.9092 254.846 55.4912V55.2275C254.846 54.2783 255.027 53.4316 255.391 52.6875C255.76 51.9375 256.275 51.3545 256.938 50.9385C257.6 50.5225 258.338 50.3145 259.152 50.3145C260.447 50.3145 261.446 50.7275 262.149 51.5537C262.858 52.3799 263.213 53.5488 263.213 55.0605V55.9219H256.999C257.063 56.707 257.324 57.3281 257.781 57.7852C258.244 58.2422 258.824 58.4707 259.521 58.4707C260.5 58.4707 261.297 58.0752 261.912 57.2842L263.063 58.3828C262.683 58.9512 262.173 59.3936 261.534 59.71C260.901 60.0205 260.189 60.1758 259.398 60.1758ZM259.144 52.0283C258.558 52.0283 258.083 52.2334 257.72 52.6436C257.362 53.0537 257.134 53.625 257.034 54.3574H261.104V54.1992C261.057 53.4844 260.866 52.9453 260.532 52.582C260.198 52.2129 259.735 52.0283 259.144 52.0283ZM270.525 57.3721L273.338 50.4902H276.01V60H273.874V53.707L271.255 60H269.805L267.177 53.6719V60H265.041V50.4902H267.73L270.525 57.3721Z" fill="white"/>
<path d="M20.959 11.27H13.3369V32H8.20996V11.27H0.69043V7.11719H20.959V11.27ZM33.2295 18.875L37.7583 7.11719H43.2954L34.5967 27.6421L33.896 28.9922C32.6086 31.2367 30.6375 32.3589 27.9829 32.3589L26.1885 32.2905L26.1372 28.1719C26.4106 28.2174 26.855 28.2402 27.4702 28.2402C28.188 28.2402 28.7633 28.1149 29.1963 27.8643C29.6406 27.6136 30.0109 27.1522 30.3071 26.48L30.9395 24.8564L22.2065 7.11719H27.7266L33.2295 18.875ZM65.0508 11.27H57.4287V32H52.3018V11.27H44.7822V7.11719H65.0508V11.27ZM63.5127 29.5732C63.5127 28.7871 63.7747 28.1491 64.2988 27.6592C64.8343 27.1693 65.5008 26.9243 66.2983 26.9243C67.1073 26.9243 67.7738 27.1693 68.2979 27.6592C68.8333 28.1491 69.1011 28.7871 69.1011 29.5732C69.1011 30.348 68.839 30.9803 68.3149 31.4702C67.7909 31.9487 67.1187 32.188 66.2983 32.188C65.4894 32.188 64.8229 31.9487 64.2988 31.4702C63.7747 30.9803 63.5127 30.348 63.5127 29.5732ZM73.7666 32V7.11719H82.4824C85.5016 7.11719 87.7917 7.69824 89.3525 8.86035C90.9134 10.0111 91.6938 11.703 91.6938 13.936C91.6938 15.1551 91.3805 16.2318 90.7539 17.166C90.1273 18.0889 89.2557 18.7668 88.1392 19.1997C89.4152 19.5187 90.4178 20.1624 91.147 21.1309C91.8875 22.0993 92.2578 23.2842 92.2578 24.6855C92.2578 27.0781 91.4945 28.8896 89.9678 30.1201C88.4411 31.3506 86.265 31.9772 83.4395 32H73.7666ZM78.8936 21.165V27.8813H83.2856C84.4933 27.8813 85.4333 27.5965 86.1055 27.0269C86.7891 26.4458 87.1309 25.6483 87.1309 24.6343C87.1309 22.3556 85.9517 21.1992 83.5933 21.165H78.8936ZM78.8936 17.542H82.6875C85.2738 17.4964 86.5669 16.4653 86.5669 14.4487C86.5669 13.3208 86.2365 12.5119 85.5757 12.022C84.9263 11.5207 83.8952 11.27 82.4824 11.27H78.8936V17.542ZM95.0264 22.5835C95.0264 20.7492 95.3796 19.1143 96.0859 17.6787C96.7923 16.2432 97.8063 15.1323 99.1279 14.3462C100.461 13.5601 102.005 13.167 103.759 13.167C106.254 13.167 108.288 13.9303 109.86 15.457C111.444 16.9837 112.327 19.0573 112.509 21.6777L112.543 22.9424C112.543 25.7793 111.752 28.0579 110.168 29.7783C108.584 31.4873 106.459 32.3418 103.793 32.3418C101.127 32.3418 98.9969 31.4873 97.4019 29.7783C95.8182 28.0693 95.0264 25.7451 95.0264 22.8057V22.5835ZM99.9653 22.9424C99.9653 24.6969 100.296 26.0413 100.957 26.9756C101.617 27.8984 102.563 28.3599 103.793 28.3599C104.99 28.3599 105.924 27.9041 106.596 26.9927C107.268 26.0698 107.604 24.6001 107.604 22.5835C107.604 20.8631 107.268 19.5301 106.596 18.5845C105.924 17.6388 104.978 17.166 103.759 17.166C102.552 17.166 101.617 17.6388 100.957 18.5845C100.296 19.5187 99.9653 20.9714 99.9653 22.9424ZM124.096 32.3418C121.385 32.3418 119.174 31.5101 117.465 29.8467C115.768 28.1833 114.919 25.9673 114.919 23.1987V22.7202C114.919 20.8631 115.278 19.2054 115.996 17.7471C116.713 16.2773 117.727 15.1494 119.038 14.3633C120.359 13.5658 121.863 13.167 123.549 13.167C126.079 13.167 128.067 13.9645 129.514 15.5596C130.972 17.1546 131.701 19.4162 131.701 22.3442V24.3608H119.926C120.086 25.5685 120.564 26.5369 121.362 27.2661C122.171 27.9953 123.19 28.3599 124.421 28.3599C126.324 28.3599 127.81 27.6706 128.881 26.292L131.308 29.0093C130.568 30.0575 129.565 30.8778 128.3 31.4702C127.036 32.0513 125.634 32.3418 124.096 32.3418ZM123.532 17.166C122.552 17.166 121.755 17.4964 121.14 18.1572C120.536 18.818 120.148 19.7637 119.978 20.9941H126.848V20.6011C126.825 19.5073 126.529 18.6642 125.959 18.0718C125.389 17.4679 124.58 17.166 123.532 17.166ZM150.551 32H145.595V24.8906H139.46V32H134.521V13.5088H139.46V20.9258H145.595V13.5088H150.551V32ZM170.41 32H165.454V24.8906H159.318V32H154.379V13.5088H159.318V20.9258H165.454V13.5088H170.41V32ZM185.38 13.5088H190.319V32H185.38V20.584L179.194 32H174.238V13.5088H179.194V24.9077L185.38 13.5088ZM201.342 25.1812H199.36V32H194.421V13.5088H199.36V20.4644H201.12L205.153 13.5088H211.391L205.341 22.3101L211.955 32H205.375L201.342 25.1812Z" fill="white"/>
</svg>
