<svg width="107" height="21" viewBox="0 0 107 21" fill="none" xmlns="http://www.w3.org/2000/svg">
<path d="M0.433594 19V14.7344H1.89551C2.37793 14.7344 2.74512 14.8311 2.99707 15.0244C3.24902 15.2178 3.375 15.5059 3.375 15.8887C3.375 16.084 3.32227 16.2598 3.2168 16.416C3.11133 16.5723 2.95703 16.6934 2.75391 16.7793C2.98438 16.8418 3.16211 16.96 3.28711 17.1338C3.41406 17.3057 3.47754 17.5127 3.47754 17.7549C3.47754 18.1553 3.34863 18.4629 3.09082 18.6777C2.83496 18.8926 2.46777 19 1.98926 19H0.433594ZM1.1748 17.0752V18.4082H1.99805C2.23047 18.4082 2.41211 18.3506 2.54297 18.2354C2.67383 18.1201 2.73926 17.96 2.73926 17.7549C2.73926 17.3115 2.5127 17.085 2.05957 17.0752H1.1748ZM1.1748 16.5303H1.90137C2.13184 16.5303 2.31152 16.4785 2.44043 16.375C2.57129 16.2695 2.63672 16.1211 2.63672 15.9297C2.63672 15.7188 2.57617 15.5664 2.45508 15.4727C2.33594 15.3789 2.14941 15.332 1.89551 15.332H1.1748V16.5303ZM4.0166 17.3857C4.0166 17.0752 4.07812 16.7959 4.20117 16.5479C4.32422 16.2979 4.49707 16.1064 4.71973 15.9736C4.94238 15.8389 5.19824 15.7715 5.4873 15.7715C5.91504 15.7715 6.26172 15.9092 6.52734 16.1846C6.79492 16.46 6.93945 16.8252 6.96094 17.2803L6.96387 17.4473C6.96387 17.7598 6.90332 18.0391 6.78223 18.2852C6.66309 18.5312 6.49121 18.7217 6.2666 18.8564C6.04395 18.9912 5.78613 19.0586 5.49316 19.0586C5.0459 19.0586 4.6875 18.9102 4.41797 18.6133C4.15039 18.3145 4.0166 17.917 4.0166 17.4209V17.3857ZM4.72852 17.4473C4.72852 17.7734 4.7959 18.0293 4.93066 18.2148C5.06543 18.3984 5.25293 18.4902 5.49316 18.4902C5.7334 18.4902 5.91992 18.3965 6.05273 18.209C6.1875 18.0215 6.25488 17.7471 6.25488 17.3857C6.25488 17.0654 6.18555 16.8115 6.04688 16.624C5.91016 16.4365 5.72363 16.3428 5.4873 16.3428C5.25488 16.3428 5.07031 16.4355 4.93359 16.6211C4.79688 16.8047 4.72852 17.0801 4.72852 17.4473ZM8.96191 19.0586C8.51074 19.0586 8.14453 18.917 7.86328 18.6338C7.58398 18.3486 7.44434 17.9697 7.44434 17.4971V17.4092C7.44434 17.0928 7.50488 16.8105 7.62598 16.5625C7.74902 16.3125 7.9209 16.1182 8.1416 15.9795C8.3623 15.8408 8.6084 15.7715 8.87988 15.7715C9.31152 15.7715 9.64453 15.9092 9.87891 16.1846C10.1152 16.46 10.2334 16.8496 10.2334 17.3535V17.6406H8.16211C8.18359 17.9023 8.27051 18.1094 8.42285 18.2617C8.57715 18.4141 8.77051 18.4902 9.00293 18.4902C9.3291 18.4902 9.59473 18.3584 9.7998 18.0947L10.1836 18.4609C10.0566 18.6504 9.88672 18.7979 9.67383 18.9033C9.46289 19.0068 9.22559 19.0586 8.96191 19.0586ZM8.87695 16.3428C8.68164 16.3428 8.52344 16.4111 8.40234 16.5479C8.2832 16.6846 8.20703 16.875 8.17383 17.1191H9.53027V17.0664C9.51465 16.8281 9.45117 16.6484 9.33984 16.5273C9.22852 16.4043 9.07422 16.3428 8.87695 16.3428ZM13.4736 19H12.7617V17.7197H11.5283V19H10.8164V15.8301H11.5283V17.1514H12.7617V15.8301H13.4736V19ZM16.9189 19H16.207V17.7197H14.9736V19H14.2617V15.8301H14.9736V17.1514H16.207V15.8301H16.9189V19ZM18.4453 16.8379H19.1426C19.4023 16.8379 19.6289 16.8828 19.8223 16.9727C20.0156 17.0625 20.1621 17.1885 20.2617 17.3506C20.3633 17.5127 20.4141 17.7012 20.4141 17.916C20.4141 18.2422 20.2988 18.5039 20.0684 18.7012C19.8379 18.8984 19.5312 18.998 19.1484 19H17.7334V15.8301H18.4453V16.8379ZM21.6533 19H20.9414V15.8301H21.6533V19ZM18.4453 17.4092V18.4316H19.1396C19.3135 18.4316 19.4502 18.3887 19.5498 18.3027C19.6514 18.2148 19.7021 18.0908 19.7021 17.9307C19.7021 17.7705 19.6523 17.6445 19.5527 17.5527C19.4551 17.459 19.3223 17.4111 19.1543 17.4092H18.4453ZM24.4863 15.8301H25.1953V19H24.4863V16.8848L23.2441 19H22.5352V15.8301H23.2441V17.9453L24.4863 15.8301ZM24.8203 14.6143C24.8203 14.8604 24.7344 15.0596 24.5625 15.2119C24.3906 15.3643 24.1611 15.4404 23.874 15.4404C23.5869 15.4404 23.3574 15.3643 23.1855 15.2119C23.0137 15.0596 22.9277 14.8604 22.9277 14.6143H23.4609C23.4609 14.7432 23.4971 14.8438 23.5693 14.916C23.6436 14.9863 23.7451 15.0215 23.874 15.0215C24.0029 15.0215 24.1035 14.9863 24.1758 14.916C24.248 14.8438 24.2842 14.7432 24.2842 14.6143H24.8203ZM28.9395 16.0059C29.3379 16.0059 29.6572 16.1396 29.8975 16.4072C30.1377 16.6729 30.2578 17.0342 30.2578 17.4912V17.5264C30.2578 17.9834 30.127 18.3535 29.8652 18.6367C29.6055 18.9199 29.252 19.0615 28.8047 19.0615C28.3691 19.0615 28.0176 18.917 27.75 18.6279C27.4824 18.3389 27.3486 17.9443 27.3486 17.4443V17.2393C27.3486 16.5557 27.4697 16.0146 27.7119 15.6162C27.9541 15.2178 28.3154 14.9688 28.7959 14.8691C29.0654 14.8145 29.2393 14.7568 29.3174 14.6963C29.3975 14.6338 29.4375 14.5498 29.4375 14.4443H30.0117C30.0117 14.6416 29.9795 14.8018 29.915 14.9248C29.8506 15.0479 29.752 15.1484 29.6191 15.2266C29.4863 15.3027 29.2578 15.375 28.9336 15.4434C28.6367 15.5059 28.4102 15.6172 28.2539 15.7773C28.0996 15.9375 27.9961 16.1592 27.9434 16.4424C28.2266 16.1514 28.5586 16.0059 28.9395 16.0059ZM28.7988 16.5771C28.5684 16.5771 28.3877 16.6553 28.2568 16.8115C28.126 16.9658 28.0605 17.2041 28.0605 17.5264C28.0605 17.8311 28.125 18.0684 28.2539 18.2383C28.3828 18.4082 28.5664 18.4932 28.8047 18.4932C29.041 18.4932 29.2236 18.4082 29.3525 18.2383C29.4834 18.0664 29.5488 17.8086 29.5488 17.4648C29.5488 17.1914 29.4834 16.9756 29.3525 16.8174C29.2236 16.6572 29.0391 16.5771 28.7988 16.5771ZM32.7422 15.8301H33.4512V19H32.7422V16.8848L31.5 19H30.791V15.8301H31.5V17.9453L32.7422 15.8301ZM36.9023 15.8301V19H36.1904V16.4043H35.2939L35.2354 17.5088C35.1982 18.04 35.0957 18.4219 34.9277 18.6543C34.7617 18.8848 34.5068 19 34.1631 19H33.9434L33.9404 18.4082L34.0869 18.3936C34.2432 18.3721 34.3564 18.2773 34.4268 18.1094C34.499 17.9395 34.5449 17.6309 34.5645 17.1836L34.623 15.8301H36.9023ZM39.0557 19.0586C38.6045 19.0586 38.2383 18.917 37.957 18.6338C37.6777 18.3486 37.5381 17.9697 37.5381 17.4971V17.4092C37.5381 17.0928 37.5986 16.8105 37.7197 16.5625C37.8428 16.3125 38.0146 16.1182 38.2354 15.9795C38.4561 15.8408 38.7021 15.7715 38.9736 15.7715C39.4053 15.7715 39.7383 15.9092 39.9727 16.1846C40.209 16.46 40.3271 16.8496 40.3271 17.3535V17.6406H38.2559C38.2773 17.9023 38.3643 18.1094 38.5166 18.2617C38.6709 18.4141 38.8643 18.4902 39.0967 18.4902C39.4229 18.4902 39.6885 18.3584 39.8936 18.0947L40.2773 18.4609C40.1504 18.6504 39.9805 18.7979 39.7676 18.9033C39.5566 19.0068 39.3193 19.0586 39.0557 19.0586ZM38.9707 16.3428C38.7754 16.3428 38.6172 16.4111 38.4961 16.5479C38.377 16.6846 38.3008 16.875 38.2676 17.1191H39.624V17.0664C39.6084 16.8281 39.5449 16.6484 39.4336 16.5273C39.3223 16.4043 39.168 16.3428 38.9707 16.3428ZM43.3418 16.3955H42.3135V19H41.6016V16.3955H40.585V15.8301H43.3418V16.3955ZM47.7129 16.6973C47.7129 16.8379 47.6699 16.9678 47.584 17.0869C47.5 17.2041 47.3809 17.2979 47.2266 17.3682C47.5898 17.4951 47.7715 17.7402 47.7715 18.1035C47.7715 18.3945 47.6533 18.627 47.417 18.8008C47.1807 18.9727 46.8643 19.0586 46.4678 19.0586C46.2256 19.0586 46.0049 19.0186 45.8057 18.9385C45.6064 18.8564 45.4512 18.7412 45.3398 18.5928C45.2285 18.4424 45.1729 18.2646 45.1729 18.0596H45.8818C45.8818 18.1885 45.9395 18.2969 46.0547 18.3848C46.1699 18.4707 46.3154 18.5137 46.4912 18.5137C46.665 18.5137 46.8027 18.4736 46.9043 18.3936C47.0078 18.3115 47.0596 18.2051 47.0596 18.0742C47.0596 17.9199 47.0146 17.8086 46.9248 17.7402C46.835 17.6719 46.6963 17.6377 46.5088 17.6377H45.999V17.125H46.5264C46.8447 17.1211 47.0039 16.9902 47.0039 16.7324C47.0039 16.6035 46.958 16.5029 46.8662 16.4307C46.7744 16.3584 46.6484 16.3223 46.4883 16.3223C46.332 16.3223 46.2002 16.3613 46.0928 16.4395C45.9854 16.5156 45.9316 16.6123 45.9316 16.7295H45.2227C45.2227 16.4502 45.3398 16.2217 45.5742 16.0439C45.8086 15.8643 46.1064 15.7744 46.4678 15.7744C46.8604 15.7744 47.166 15.8545 47.3848 16.0146C47.6035 16.1748 47.7129 16.4023 47.7129 16.6973ZM50.2705 19C50.2393 18.9395 50.2119 18.8408 50.1885 18.7041C49.9619 18.9404 49.6846 19.0586 49.3564 19.0586C49.0381 19.0586 48.7783 18.9678 48.5771 18.7861C48.376 18.6045 48.2754 18.3799 48.2754 18.1123C48.2754 17.7744 48.4004 17.5156 48.6504 17.3359C48.9023 17.1543 49.2617 17.0635 49.7285 17.0635H50.165V16.8555C50.165 16.6914 50.1191 16.5605 50.0273 16.4629C49.9355 16.3633 49.7959 16.3135 49.6084 16.3135C49.4463 16.3135 49.3135 16.3545 49.21 16.4365C49.1064 16.5166 49.0547 16.6191 49.0547 16.7441H48.3428C48.3428 16.5703 48.4004 16.4082 48.5156 16.2578C48.6309 16.1055 48.7871 15.9863 48.9844 15.9004C49.1836 15.8145 49.4053 15.7715 49.6494 15.7715C50.0205 15.7715 50.3164 15.8652 50.5371 16.0527C50.7578 16.2383 50.8711 16.5 50.877 16.8379V18.2676C50.877 18.5527 50.917 18.7803 50.9971 18.9502V19H50.2705ZM49.4883 18.4873C49.6289 18.4873 49.7607 18.4531 49.8838 18.3848C50.0088 18.3164 50.1025 18.2246 50.165 18.1094V17.5117H49.7812C49.5176 17.5117 49.3193 17.5576 49.1865 17.6494C49.0537 17.7412 48.9873 17.8711 48.9873 18.0391C48.9873 18.1758 49.0322 18.2852 49.1221 18.3672C49.2139 18.4473 49.3359 18.4873 49.4883 18.4873ZM52.749 17.7461H52.3887V19H51.6768V15.8301H52.3887V17.0957H52.7021L53.5781 15.8301H54.457L53.3115 17.3477L54.5537 19H53.6279L52.749 17.7461ZM54.6416 17.3857C54.6416 17.0752 54.7031 16.7959 54.8262 16.5479C54.9492 16.2979 55.1221 16.1064 55.3447 15.9736C55.5674 15.8389 55.8232 15.7715 56.1123 15.7715C56.54 15.7715 56.8867 15.9092 57.1523 16.1846C57.4199 16.46 57.5645 16.8252 57.5859 17.2803L57.5889 17.4473C57.5889 17.7598 57.5283 18.0391 57.4072 18.2852C57.2881 18.5312 57.1162 18.7217 56.8916 18.8564C56.6689 18.9912 56.4111 19.0586 56.1182 19.0586C55.6709 19.0586 55.3125 18.9102 55.043 18.6133C54.7754 18.3145 54.6416 17.917 54.6416 17.4209V17.3857ZM55.3535 17.4473C55.3535 17.7734 55.4209 18.0293 55.5557 18.2148C55.6904 18.3984 55.8779 18.4902 56.1182 18.4902C56.3584 18.4902 56.5449 18.3965 56.6777 18.209C56.8125 18.0215 56.8799 17.7471 56.8799 17.3857C56.8799 17.0654 56.8105 16.8115 56.6719 16.624C56.5352 16.4365 56.3486 16.3428 56.1123 16.3428C55.8799 16.3428 55.6953 16.4355 55.5586 16.6211C55.4219 16.8047 55.3535 17.0801 55.3535 17.4473ZM60.876 19H60.1641V17.7197H58.9307V19H58.2188V15.8301H58.9307V17.1514H60.1641V15.8301H60.876V19ZM64.3213 19H63.6094V17.7197H62.376V19H61.6641V15.8301H62.376V17.1514H63.6094V15.8301H64.3213V19ZM65.8477 16.8379H66.5449C66.8047 16.8379 67.0312 16.8828 67.2246 16.9727C67.418 17.0625 67.5645 17.1885 67.6641 17.3506C67.7656 17.5127 67.8164 17.7012 67.8164 17.916C67.8164 18.2422 67.7012 18.5039 67.4707 18.7012C67.2402 18.8984 66.9336 18.998 66.5508 19H65.1357V15.8301H65.8477V16.8379ZM69.0557 19H68.3438V15.8301H69.0557V19ZM65.8477 17.4092V18.4316H66.542C66.7158 18.4316 66.8525 18.3887 66.9521 18.3027C67.0537 18.2148 67.1045 18.0908 67.1045 17.9307C67.1045 17.7705 67.0547 17.6445 66.9551 17.5527C66.8574 17.459 66.7246 17.4111 66.5566 17.4092H65.8477ZM71.792 18.124L72.7295 15.8301H73.6201V19H72.9082V16.9023L72.0352 19H71.5518L70.6758 16.8906V19H69.9639V15.8301H70.8604L71.792 18.124ZM78.6035 19H77.8916V16.4043H76.6553V19H75.9434V15.8301H78.6035V19ZM80.4697 17.9805L81.1143 15.8301H81.873L80.6133 19.4805C80.4199 20.0137 80.0918 20.2803 79.6289 20.2803C79.5254 20.2803 79.4111 20.2627 79.2861 20.2275V19.6768L79.4209 19.6855C79.6006 19.6855 79.7354 19.6523 79.8252 19.5859C79.917 19.5215 79.9893 19.4121 80.042 19.2578L80.1445 18.9854L79.0312 15.8301H79.7988L80.4697 17.9805ZM84.7793 16.3955H83.751V19H83.0391V16.3955H82.0225V15.8301H84.7793V16.3955ZM86.4639 19.0586C86.0127 19.0586 85.6465 18.917 85.3652 18.6338C85.0859 18.3486 84.9463 17.9697 84.9463 17.4971V17.4092C84.9463 17.0928 85.0068 16.8105 85.1279 16.5625C85.251 16.3125 85.4229 16.1182 85.6436 15.9795C85.8643 15.8408 86.1104 15.7715 86.3818 15.7715C86.8135 15.7715 87.1465 15.9092 87.3809 16.1846C87.6172 16.46 87.7354 16.8496 87.7354 17.3535V17.6406H85.6641C85.6855 17.9023 85.7725 18.1094 85.9248 18.2617C86.0791 18.4141 86.2725 18.4902 86.5049 18.4902C86.8311 18.4902 87.0967 18.3584 87.3018 18.0947L87.6855 18.4609C87.5586 18.6504 87.3887 18.7979 87.1758 18.9033C86.9648 19.0068 86.7275 19.0586 86.4639 19.0586ZM86.3789 16.3428C86.1836 16.3428 86.0254 16.4111 85.9043 16.5479C85.7852 16.6846 85.709 16.875 85.6758 17.1191H87.0322V17.0664C87.0166 16.8281 86.9531 16.6484 86.8418 16.5273C86.7305 16.4043 86.5762 16.3428 86.3789 16.3428ZM90.1729 18.124L91.1104 15.8301H92.001V19H91.2891V16.9023L90.416 19H89.9326L89.0566 16.8906V19H88.3447V15.8301H89.2412L90.1729 18.124Z" fill="white"/>
<path d="M5.98633 3.07715H3.80859V9H2.34375V3.07715H0.195312V1.89062H5.98633V3.07715ZM9.49219 5.25L10.7861 1.89062H12.3682L9.88281 7.75488L9.68262 8.14062C9.31478 8.7819 8.75163 9.10254 7.99316 9.10254L7.48047 9.08301L7.46582 7.90625C7.54395 7.91927 7.6709 7.92578 7.84668 7.92578C8.05176 7.92578 8.21615 7.88997 8.33984 7.81836C8.4668 7.74674 8.57259 7.61491 8.65723 7.42285L8.83789 6.95898L6.34277 1.89062H7.91992L9.49219 5.25ZM18.584 3.07715H16.4062V9H14.9414V3.07715H12.793V1.89062H18.584V3.07715ZM18.1445 8.30664C18.1445 8.08203 18.2194 7.89974 18.3691 7.75977C18.5221 7.61979 18.7126 7.5498 18.9404 7.5498C19.1715 7.5498 19.362 7.61979 19.5117 7.75977C19.6647 7.89974 19.7412 8.08203 19.7412 8.30664C19.7412 8.52799 19.6663 8.70866 19.5166 8.84863C19.3669 8.98535 19.1748 9.05371 18.9404 9.05371C18.7093 9.05371 18.5189 8.98535 18.3691 8.84863C18.2194 8.70866 18.1445 8.52799 18.1445 8.30664ZM21.0742 9V1.89062H23.5645C24.4271 1.89062 25.0814 2.05664 25.5273 2.38867C25.9733 2.71745 26.1963 3.20085 26.1963 3.83887C26.1963 4.18717 26.1068 4.49479 25.9277 4.76172C25.7487 5.02539 25.4997 5.21908 25.1807 5.34277C25.5452 5.43392 25.8317 5.61784 26.04 5.89453C26.2516 6.17122 26.3574 6.50977 26.3574 6.91016C26.3574 7.59375 26.1393 8.11133 25.7031 8.46289C25.2669 8.81445 24.6452 8.99349 23.8379 9H21.0742ZM22.5391 5.9043V7.82324H23.7939C24.139 7.82324 24.4076 7.74186 24.5996 7.5791C24.7949 7.41309 24.8926 7.18522 24.8926 6.89551C24.8926 6.24447 24.5557 5.91406 23.8818 5.9043H22.5391ZM22.5391 4.86914H23.623C24.362 4.85612 24.7314 4.56152 24.7314 3.98535C24.7314 3.66309 24.637 3.43197 24.4482 3.29199C24.2627 3.14876 23.9681 3.07715 23.5645 3.07715H22.5391V4.86914ZM27.1484 6.30957C27.1484 5.78548 27.2493 5.31836 27.4512 4.9082C27.653 4.49805 27.9427 4.18066 28.3203 3.95605C28.7012 3.73145 29.1423 3.61914 29.6436 3.61914C30.3564 3.61914 30.9375 3.83724 31.3867 4.27344C31.8392 4.70964 32.0915 5.30208 32.1436 6.05078L32.1533 6.41211C32.1533 7.22266 31.9271 7.8737 31.4746 8.36523C31.0221 8.85352 30.415 9.09766 29.6533 9.09766C28.8916 9.09766 28.2829 8.85352 27.8271 8.36523C27.3747 7.87695 27.1484 7.21289 27.1484 6.37305V6.30957ZM28.5596 6.41211C28.5596 6.91341 28.654 7.29753 28.8428 7.56445C29.0316 7.82812 29.3018 7.95996 29.6533 7.95996C29.9951 7.95996 30.262 7.82975 30.4541 7.56934C30.6462 7.30566 30.7422 6.88574 30.7422 6.30957C30.7422 5.81803 30.6462 5.43717 30.4541 5.16699C30.262 4.89681 29.9919 4.76172 29.6436 4.76172C29.2985 4.76172 29.0316 4.89681 28.8428 5.16699C28.654 5.43392 28.5596 5.84896 28.5596 6.41211ZM35.4541 9.09766C34.6794 9.09766 34.0479 8.86003 33.5596 8.38477C33.0745 7.90951 32.832 7.27637 32.832 6.48535V6.34863C32.832 5.81803 32.9346 5.3444 33.1396 4.92773C33.3447 4.50781 33.6344 4.18555 34.0088 3.96094C34.3864 3.73307 34.8161 3.61914 35.2979 3.61914C36.0205 3.61914 36.5885 3.84701 37.002 4.30273C37.4186 4.75846 37.627 5.40462 37.627 6.24121V6.81738H34.2627C34.3083 7.16243 34.445 7.43913 34.6729 7.64746C34.904 7.85579 35.1953 7.95996 35.5469 7.95996C36.0905 7.95996 36.5153 7.76302 36.8213 7.36914L37.5146 8.14551C37.3031 8.44499 37.0166 8.67936 36.6553 8.84863C36.2939 9.01465 35.8936 9.09766 35.4541 9.09766ZM35.293 4.76172C35.013 4.76172 34.7852 4.85612 34.6094 5.04492C34.4368 5.23372 34.3262 5.50391 34.2773 5.85547H36.2402V5.74316C36.2337 5.43066 36.1491 5.18978 35.9863 5.02051C35.8236 4.84798 35.5924 4.76172 35.293 4.76172ZM43.0127 9H41.5967V6.96875H39.8438V9H38.4326V3.7168H39.8438V5.83594H41.5967V3.7168H43.0127V9ZM48.6865 9H47.2705V6.96875H45.5176V9H44.1064V3.7168H45.5176V5.83594H47.2705V3.7168H48.6865V9ZM52.9639 3.7168H54.375V9H52.9639V5.73828L51.1963 9H49.7803V3.7168H51.1963V6.97363L52.9639 3.7168ZM57.5244 7.05176H56.958V9H55.5469V3.7168H56.958V5.7041H57.4609L58.6133 3.7168H60.3955L58.667 6.23145L60.5566 9H58.6768L57.5244 7.05176Z" fill="white"/>
</svg>
