<svg width="74" height="74" viewBox="0 0 74 74" fill="none" xmlns="http://www.w3.org/2000/svg">
<path fill-rule="evenodd" clip-rule="evenodd" d="M51.0833 15.4167H20.25C19.4322 15.4167 18.648 15.7415 18.0698 16.3198C17.4915 16.898 17.1667 17.6822 17.1667 18.5V55.5C17.1667 56.3177 17.4915 57.102 18.0698 57.6802C18.648 58.2585 19.4322 58.5833 20.25 58.5833H51.0833C51.9011 58.5833 52.6853 58.2585 53.2636 57.6802C53.8418 57.102 54.1667 56.3177 54.1667 55.5V18.5C54.1667 17.6822 53.8418 16.898 53.2636 16.3198C52.6853 15.7415 51.9011 15.4167 51.0833 15.4167ZM20.25 9.25C17.7967 9.25 15.444 10.2246 13.7093 11.9593C11.9746 13.694 11 16.0467 11 18.5V55.5C11 57.9533 11.9746 60.306 13.7093 62.0407C15.444 63.7754 17.7967 64.75 20.25 64.75H51.0833C53.5366 64.75 55.8894 63.7754 57.6241 62.0407C59.3588 60.306 60.3333 57.9533 60.3333 55.5V18.5C60.3333 16.0467 59.3588 13.694 57.6241 11.9593C55.8894 10.2246 53.5366 9.25 51.0833 9.25H20.25Z" fill="#4641FF"/>
<path d="M23.3335 21.5833H48.0002V27.75H23.3335V21.5833Z" fill="#4641FF"/>
<path d="M23.3335 33.9167H48.0002V40.0833H23.3335V33.9167Z" fill="#4641FF"/>
<path d="M23.3335 46.25H38.7502V52.4167H23.3335V46.25Z" fill="#4641FF"/>
</svg>
