<svg width="71" height="64" viewBox="0 0 71 64" fill="none" xmlns="http://www.w3.org/2000/svg">
<path fill-rule="evenodd" clip-rule="evenodd" d="M37.8131 2.38485C37.8131 1.75235 37.5691 1.14575 37.1349 0.698505C36.7006 0.25126 36.1117 0 35.4975 0C34.8834 0 34.2944 0.25126 33.8602 0.698505C33.4259 1.14575 33.182 1.75235 33.182 2.38485V7.94949H27.0875C26.0028 7.949 24.9432 8.28472 24.0464 8.91297L18.8132 12.5825C18.6848 12.6721 18.533 12.7197 18.3779 12.7192H5.71337C5.09925 12.7192 4.51028 12.9704 4.07603 13.4177C3.64178 13.8649 3.39782 14.4715 3.39782 15.104C3.39782 15.7365 3.64178 16.3431 4.07603 16.7904C4.51028 17.2376 5.09925 17.4889 5.71337 17.4889H10.5822L0.186926 41.9097C-0.00942968 42.3863 -0.0524194 42.9151 0.0642565 43.4187C0.180932 43.9222 0.451139 44.3741 0.83528 44.7079C1.08227 44.9115 1.33235 45.1054 1.78929 45.4107C2.36354 45.7954 3.18479 46.2947 4.23451 46.7875C6.33394 47.7765 9.36577 48.759 13.1139 48.759C16.1767 48.7651 19.2049 48.0927 21.9932 46.7875C23.043 46.2947 23.8642 45.7954 24.4385 45.4107C24.9016 45.1022 25.1486 44.9083 25.3956 44.7016C25.7828 44.3714 26.0552 43.9205 26.1716 43.4168C26.288 42.9132 26.2421 42.3842 26.0408 41.9097L15.6425 17.4889H18.3779C19.4616 17.4889 20.5206 17.1518 21.4159 16.5254L26.6521 12.8559C26.7797 12.7669 26.9303 12.7193 27.0844 12.7192H33.182V58.8262H19.3288C18.7147 58.8262 18.1257 59.0775 17.6915 59.5247C17.2572 59.972 17.0133 60.5786 17.0133 61.2111C17.0133 61.8436 17.2572 62.4502 17.6915 62.8974C18.1257 63.3447 18.7147 63.5959 19.3288 63.5959H51.6663C52.2804 63.5959 52.8694 63.3447 53.3036 62.8974C53.7379 62.4502 53.9818 61.8436 53.9818 61.2111C53.9818 60.5786 53.7379 59.972 53.3036 59.5247C52.8694 59.0775 52.2804 58.8262 51.6663 58.8262H37.8131V12.7192H43.9076C44.062 12.7192 44.2164 12.7669 44.3399 12.8559L49.5792 16.5254C50.4745 17.1518 51.5335 17.4889 52.6172 17.4889H55.3526L44.9542 41.9097C44.7463 42.398 44.7033 42.944 44.832 43.4605C44.9607 43.9769 45.2538 44.434 45.6643 44.7588C45.7014 44.7874 45.6643 44.7588 45.6705 44.7588C45.9768 44.9964 46.2963 45.2151 46.6276 45.4139C47.1988 45.77 48.0169 46.2279 49.0667 46.6858C51.8584 47.8876 54.8554 48.5017 57.8812 48.4919C60.9082 48.5011 63.9064 47.8859 66.6988 46.6826C67.7424 46.2279 68.5636 45.77 69.1379 45.4139C69.4679 45.2132 69.7874 44.9945 70.095 44.7588C70.5055 44.434 70.7986 43.9769 70.9273 43.4605C71.056 42.944 71.013 42.398 70.8051 41.9097L60.4129 17.4889H65.2848C65.8989 17.4889 66.4879 17.2376 66.9221 16.7904C67.3564 16.3431 67.6003 15.7365 67.6003 15.104C67.6003 14.4715 67.3564 13.8649 66.9221 13.4177C66.4879 12.9704 65.8989 12.7192 65.2848 12.7192H52.6203C52.4662 12.7191 52.3156 12.6715 52.188 12.5825L46.9487 8.91297C46.0528 8.28533 44.9943 7.94963 43.9107 7.94949H37.8131V2.38485ZM5.21939 41.967C7.64949 43.2988 10.3612 43.9923 13.1139 43.9861C15.8666 43.9923 18.5783 43.2988 21.0084 41.967L13.1139 23.4287L5.21939 41.967ZM50.0176 41.8906C50.2707 42.0178 50.5548 42.1546 50.8666 42.2913C52.5029 43.0004 54.8957 43.7222 57.8812 43.7222C60.603 43.7302 63.2912 43.104 65.7448 41.8906L57.8812 23.4256L50.0176 41.8906Z" fill="#4641FF"/>
</svg>
