<svg width="63" height="65" viewBox="0 0 63 65" fill="none" xmlns="http://www.w3.org/2000/svg">
<path d="M48.8648 32.093C56.3792 32.093 62.4708 28.5251 62.4708 24.1239C62.4708 19.7227 56.3792 16.1548 48.8648 16.1548C41.3504 16.1548 35.2588 19.7227 35.2588 24.1239C35.2588 28.5251 41.3504 32.093 48.8648 32.093Z" fill="#4641FF"/>
<path fill-rule="evenodd" clip-rule="evenodd" d="M49.0674 36.6771C39.336 36.6771 35.4614 32.4727 35.4614 30.0374V40.4694C35.4614 44.8717 41.5534 48.4338 49.0674 48.4338C56.5893 48.4338 62.6812 44.8717 62.6812 40.4694V30.2878C62.6812 32.7272 58.8027 36.6771 49.0674 36.6771Z" fill="#4641FF"/>
<path fill-rule="evenodd" clip-rule="evenodd" d="M49.0674 52.7956C40.3624 52.7956 35.4614 48.7528 35.4614 46.3173V56.6527C35.4614 61.055 41.5534 64.6213 49.0674 64.6213C56.5893 64.6213 62.6812 61.055 62.6812 56.6527V46.1921C62.6812 48.6276 57.7763 52.7956 49.0674 52.7956Z" fill="#4641FF"/>
<path d="M15.4238 15.9373C23.9421 15.9373 30.8475 12.3696 30.8475 7.96863C30.8475 3.56768 23.9421 0 15.4238 0C6.90546 0 0 3.56768 0 7.96863C0 12.3696 6.90546 15.9373 15.4238 15.9373Z" fill="#4641FF"/>
<path fill-rule="evenodd" clip-rule="evenodd" d="M15.9135 20.5215C4.88534 20.5215 0.489746 16.3169 0.489746 13.8813V24.3141C0.489746 28.7166 7.39655 32.2791 15.9135 32.2791C24.4383 32.2791 31.3412 28.7166 31.3412 24.3141V14.1318C31.3412 16.5713 26.9417 20.5215 15.9135 20.5215Z" fill="#4641FF"/>
<path fill-rule="evenodd" clip-rule="evenodd" d="M15.9135 36.6407C6.04497 36.6407 0.489746 32.5979 0.489746 30.1626V40.4977C0.489746 44.8999 7.39655 48.4661 15.9135 48.4661C24.4383 48.4661 31.3412 44.8999 31.3412 40.4977V30.0374C31.3412 32.4727 25.7781 36.6407 15.9135 36.6407Z" fill="#4641FF"/>
<path fill-rule="evenodd" clip-rule="evenodd" d="M15.9135 52.7956C6.04497 52.7956 0.489746 48.7528 0.489746 46.3173V56.6527C0.489746 61.055 7.39655 64.6213 15.9135 64.6213C24.4383 64.6213 31.3412 61.055 31.3412 56.6527V46.1921C31.3412 48.6276 25.7781 52.7956 15.9135 52.7956Z" fill="#4641FF"/>
</svg>
