<svg width="42" height="41" viewBox="0 0 42 41" fill="none" xmlns="http://www.w3.org/2000/svg">
<path d="M27.4461 0H14.5539C2.78898 0 0 2.72257 0 14.2073V26.7927C0 38.2774 2.78898 41 14.5539 41H27.4461C39.211 41 42 38.2774 42 26.7927V14.2073C42 2.72257 39.1835 0 27.4461 0ZM33.9061 29.2475H30.8572C29.7023 29.2475 29.3466 28.3532 27.269 26.2981C25.4643 24.5903 24.665 24.3635 24.2201 24.3635C23.5914 24.3635 23.413 24.5365 23.413 25.3782V28.0675C23.413 28.7888 23.1807 29.2218 21.2251 29.2218C17.9912 29.2218 14.4029 27.3128 11.8869 23.7562C8.09262 18.5442 7.05447 14.6404 7.05447 13.8332C7.05447 13.3989 7.23165 12.9928 8.08606 12.9928H11.1415C11.9145 12.9928 12.2085 13.34 12.509 14.1471C14.0197 18.4046 16.5357 22.1342 17.5738 22.1342C17.9571 22.1342 18.1342 21.9612 18.1342 21.0067V16.6096C18.0174 14.5815 16.9242 14.4072 16.9242 13.6872C16.9242 13.34 17.2182 12.9928 17.6893 12.9928H22.4942C23.1439 12.9928 23.3828 13.34 23.3828 14.0869V20.0189C23.3828 20.6595 23.6768 20.8863 23.8539 20.8863C24.2372 20.8863 24.5653 20.6595 25.2753 19.9651C27.4698 17.5628 29.0421 13.8588 29.0421 13.8588C29.2468 13.4245 29.6025 13.0184 30.3756 13.0184H33.431C34.347 13.0184 34.5518 13.4783 34.3471 14.1189C33.9638 15.8537 30.2246 21.0054 30.2246 21.0054C29.9031 21.5256 29.7797 21.7524 30.2246 22.3328C30.5527 22.7671 31.6198 23.6678 32.3298 24.475C33.6357 25.9227 34.6397 27.1373 34.9075 27.9778C35.208 28.8119 34.7644 29.2462 33.9021 29.2462L33.9061 29.2475Z" fill="white"/>
</svg>
