<svg width="73" height="72" viewBox="0 0 73 72" fill="none" xmlns="http://www.w3.org/2000/svg">
<path d="M30.9971 34C30.9971 30.7 33.6971 28 36.9971 28C40.2971 28 42.9971 30.7 42.9971 34C42.9971 37.3 40.2971 40 36.9971 40C33.6971 40 30.9971 37.3 30.9971 34ZM24.3971 51.1L19.8971 46.9L24.3971 42.4C22.8971 40 21.9971 37 21.9971 34C21.9971 31 22.8971 28 24.3971 25.9L19.8971 21.4L24.3971 16.9L28.5971 21.4C30.9971 19.9 33.9971 19 36.9971 19C39.9971 19 42.9971 19.9 45.3971 21.4L49.8971 16.9L54.0971 21.1L49.5971 25.6C51.0971 28 51.9971 31 51.9971 34C51.9971 37 51.0971 40 49.5971 42.4L54.0971 46.9L49.8971 51.1L45.3971 46.6C42.9971 48.1 39.9971 49 36.9971 49C33.9971 49 30.9971 48.1 28.8971 46.6L24.3971 51.1ZM36.9971 25C31.8971 25 27.9971 28.9 27.9971 34C27.9971 39.1 31.8971 43 36.9971 43C42.0971 43 45.9971 39.1 45.9971 34C45.9971 28.9 42.0971 25 36.9971 25ZM60.9971 4C64.2971 4 66.9971 6.7 66.9971 10V58C66.9971 61.3 64.2971 64 60.9971 64H57.9971V67H45.9971V64H27.9971V67H15.9971V64H12.9971C9.69707 64 6.99707 61.3 6.99707 58V10C6.99707 6.7 9.69707 4 12.9971 4H60.9971ZM60.9971 58V10H12.9971V58H60.9971Z" fill="#4641FF"/>
</svg>
