<svg width="77" height="77" viewBox="0 0 77 77" fill="none" xmlns="http://www.w3.org/2000/svg">
<path d="M50.5316 6.41669C52.4462 6.41669 54.2823 7.17723 55.6361 8.53101C56.9898 9.88479 57.7504 11.7209 57.7504 13.6354V63.3646C57.7504 65.2791 56.9898 67.1153 55.6361 68.469C54.2823 69.8228 52.4462 70.5834 50.5316 70.5834H26.4691C24.5546 70.5834 22.7185 69.8228 21.3647 68.469C20.0109 67.1153 19.2504 65.2791 19.2504 63.3646V13.6354C19.2504 11.7209 20.0109 9.88479 21.3647 8.53101C22.7185 7.17723 24.5546 6.41669 26.4691 6.41669H50.5316ZM50.5316 11.2292H26.4691C25.831 11.2292 25.2189 11.4827 24.7677 11.934C24.3164 12.3852 24.0629 12.9973 24.0629 13.6354V63.3646C24.0629 64.6929 25.1409 65.7709 26.4691 65.7709H50.5316C51.1698 65.7709 51.7818 65.5173 52.2331 65.0661C52.6844 64.6148 52.9379 64.0028 52.9379 63.3646V13.6354C52.9379 12.9973 52.6844 12.3852 52.2331 11.934C51.7818 11.4827 51.1698 11.2292 50.5316 11.2292ZM42.5076 56.1459C43.1458 56.145 43.7581 56.3977 44.21 56.8484C44.6619 57.299 44.9162 57.9107 44.917 58.5489C44.9179 59.1871 44.6652 59.7995 44.2145 60.2513C43.7639 60.7032 43.1522 60.9575 42.514 60.9584L34.4932 60.9712C33.855 60.972 33.2426 60.7193 32.7908 60.2687C32.3389 59.818 32.0846 59.2063 32.0837 58.5681C32.0829 57.93 32.3356 57.3176 32.7862 56.8657C33.2369 56.4139 33.8486 56.1595 34.4868 56.1587L42.5076 56.1459ZM66.2589 26.0838L66.4 26.3757L68.2705 31.0503C68.794 32.3594 68.9961 33.775 68.8599 35.1783C68.7237 36.5817 68.2531 37.932 67.4877 39.116L67.1348 39.6197L66.6535 40.2678C66.2874 40.7554 66.0373 41.32 65.9223 41.9188C65.8072 42.5175 65.8301 43.1346 65.9894 43.7232L66.137 44.1627L68.0042 48.8373C68.2278 49.4028 68.229 50.0321 68.0075 50.5984C67.786 51.1648 67.3583 51.6263 66.8104 51.8901C66.2624 52.1539 65.6349 52.2005 65.054 52.0204C64.4732 51.8403 63.982 51.447 63.6794 50.9195L63.5382 50.6211L61.6678 45.9498C61.1443 44.6406 60.9422 43.2251 61.0784 41.8217C61.2146 40.4184 61.6851 39.0681 62.4506 37.884L62.8035 37.3803L63.2848 36.7322C63.6508 36.2447 63.9009 35.68 64.016 35.0813C64.1311 34.4825 64.1081 33.8654 63.9489 33.2769L63.8013 32.8373L61.9341 28.166C61.7177 27.6276 61.7032 27.0291 61.8932 26.4809C62.0832 25.9326 62.465 25.4715 62.9681 25.1824C63.4712 24.8934 64.0618 24.7959 64.6312 24.9078C65.2005 25.0198 65.7102 25.3337 66.0664 25.7918L66.2589 26.0806V26.0838ZM13.3214 26.0838L13.4625 26.3757L15.333 31.0503C15.8565 32.3594 16.0586 33.775 15.9224 35.1783C15.7862 36.5817 15.3156 37.932 14.5502 39.116L14.1973 39.6197L13.716 40.2678C13.3499 40.7554 13.0998 41.32 12.9848 41.9188C12.8697 42.5175 12.8926 43.1346 13.0519 43.7232L13.1995 44.1627L15.0667 48.8373C15.2903 49.4028 15.2915 50.0321 15.07 50.5984C14.8485 51.1648 14.4208 51.6263 13.8729 51.8901C13.3249 52.1539 12.6974 52.2005 12.1165 52.0204C11.5357 51.8403 11.0445 51.447 10.7419 50.9195L10.6007 50.6211L8.73026 45.9498C8.20678 44.6406 8.00467 43.2251 8.14088 41.8217C8.27708 40.4184 8.74763 39.0681 9.51309 37.884L9.86601 37.3803L10.3473 36.7322C10.7133 36.2447 10.9634 35.68 11.0785 35.0813C11.1936 34.4825 11.1706 33.8654 11.0114 33.2769L10.8638 32.8373L8.99655 28.166C8.78287 27.6283 8.77005 27.0317 8.96045 26.4854C9.15084 25.9391 9.5317 25.4796 10.0332 25.1913C10.5348 24.9029 11.1235 24.8048 11.6914 24.9151C12.2593 25.0254 12.7685 25.3367 13.1257 25.7918L13.3214 26.0806V26.0838Z" fill="#4641FF"/>
</svg>
