<svg width="11" height="10" viewBox="0 0 11 10" fill="none" xmlns="http://www.w3.org/2000/svg">
<path d="M5.63779 2.22641C6.7341 1.1301 8.14929 0.767812 8.79869 1.41722C9.4481 2.06663 9.08581 3.48181 7.9895 4.57812L5.63779 2.22641Z" fill="#FF7A00"/>
<path d="M4.30591 8.54346L7.89155 4.67307L5.51865 2.30017L1.67199 5.90954L4.30591 8.54346Z" fill="#FF7A00"/>
<rect width="0.547762" height="3.32582" transform="matrix(0.707107 -0.707107 -0.707107 -0.707107 3.68066 8.88721)" fill="#FF7A00"/>
<rect width="0.684703" height="3.72492" transform="matrix(0.707107 -0.707107 -0.707107 -0.707107 3.24097 9.60889)" fill="#FF7A00"/>
<path d="M4.47793 2.12631C3.38162 1.03 1.96644 0.667715 1.31703 1.31712C0.667621 1.96653 1.02991 3.38172 2.12622 4.47803L4.47793 2.12631Z" fill="#FF7A00"/>
<path d="M5.81006 8.44434L2.22442 4.57395L4.59732 2.20105L8.44398 5.81042L5.81006 8.44434Z" fill="#FF7A00"/>
<rect x="6.43506" y="8.78711" width="0.547762" height="3.32582" transform="rotate(-135 6.43506 8.78711)" fill="#FF7A00"/>
<rect x="6.87549" y="9.50928" width="0.684703" height="3.72492" transform="rotate(-135 6.87549 9.50928)" fill="#FF7A00"/>
</svg>
