<svg width="34" height="32" viewBox="0 0 34 32" fill="none" xmlns="http://www.w3.org/2000/svg">
<path d="M18.7141 7.38772C22.3531 3.74881 27.0504 2.5463 29.2059 4.70183C31.3614 6.85737 30.1589 11.5547 26.52 15.1936L18.7141 7.38772Z" fill="#FF7A00"/>
<path d="M14.293 28.3575L26.1945 15.5108L18.3183 7.63462L5.55038 19.615L14.293 28.3575Z" fill="#FF7A00"/>
<rect width="1.81815" height="11.0392" transform="matrix(0.707107 -0.707107 -0.707107 -0.707107 12.2178 29.4962)" fill="#FF7A00"/>
<rect width="2.27269" height="12.3639" transform="matrix(0.707107 -0.707107 -0.707107 -0.707107 10.7573 31.8932)" fill="#FF7A00"/>
<path d="M14.863 7.05716C11.2241 3.41825 6.52677 2.21573 4.37124 4.37126C2.2157 6.5268 3.41822 11.2241 7.05713 14.863L14.863 7.05716Z" fill="#FF7A00"/>
<path d="M19.2842 28.0271L7.3826 15.1804L15.2588 7.30418L28.0268 19.2845L19.2842 28.0271Z" fill="#FF7A00"/>
<rect x="21.3594" y="29.1658" width="1.81815" height="11.0392" transform="rotate(-135 21.3594 29.1658)" fill="#FF7A00"/>
<rect x="22.8198" y="31.5626" width="2.27269" height="12.3639" transform="rotate(-135 22.8198 31.5626)" fill="#FF7A00"/>
</svg>
