<svg width="41" height="41" viewBox="0 0 41 41" fill="none" xmlns="http://www.w3.org/2000/svg">
<path d="M20.6432 13.9701C16.9659 13.9701 13.9648 16.9712 13.9648 20.6486C13.9648 24.3261 16.9659 27.3271 20.6432 27.3271C24.3206 27.3271 27.3216 24.3261 27.3216 20.6486C27.3216 16.9712 24.3206 13.9701 20.6432 13.9701ZM40.6734 20.6486C40.6734 17.883 40.6985 15.1425 40.5431 12.3819C40.3878 9.17539 39.6564 6.32962 37.3117 3.98488C34.9619 1.63512 32.1213 0.90865 28.9148 0.753336C26.1493 0.598021 23.4088 0.623072 20.6482 0.623072C17.8827 0.623072 15.1422 0.598021 12.3817 0.753336C9.17523 0.90865 6.32952 1.64013 3.98482 3.98488C1.6351 6.33463 0.908645 9.17539 0.753333 12.3819C0.598022 15.1475 0.623072 17.888 0.623072 20.6486C0.623072 23.4092 0.598022 26.1548 0.753333 28.9153C0.908645 32.1218 1.64011 34.9676 3.98482 37.3123C6.33453 39.6621 9.17523 40.3886 12.3817 40.5439C15.1472 40.6992 17.8877 40.6742 20.6482 40.6742C23.4138 40.6742 26.1543 40.6992 28.9148 40.5439C32.1213 40.3886 34.967 39.6571 37.3117 37.3123C39.6614 34.9626 40.3878 32.1218 40.5431 28.9153C40.7035 26.1548 40.6734 23.4142 40.6734 20.6486ZM20.6432 30.9244C14.9568 30.9244 10.3676 26.3351 10.3676 20.6486C10.3676 14.9621 14.9568 10.3728 20.6432 10.3728C26.3296 10.3728 30.9188 14.9621 30.9188 20.6486C30.9188 26.3351 26.3296 30.9244 20.6432 30.9244ZM31.3397 12.3518C30.012 12.3518 28.9399 11.2796 28.9399 9.95196C28.9399 8.62427 30.012 7.5521 31.3397 7.5521C32.6673 7.5521 33.7395 8.62427 33.7395 9.95196C33.7399 10.2672 33.6781 10.5795 33.5576 10.8708C33.4372 11.1622 33.2604 11.4269 33.0375 11.6498C32.8146 11.8727 32.5499 12.0495 32.2585 12.1699C31.9672 12.2904 31.6549 12.3522 31.3397 12.3518Z" fill="#FF7A00"/>
</svg>
