<svg width="900" height="834" viewBox="0 0 900 834" fill="none" xmlns="http://www.w3.org/2000/svg">
<g clip-path="url(#clip0)">
<path d="M0.998535 -9.00005C0.998535 -53.1828 36.8158 -89 80.9985 -89H438.676H851.648C889.62 -89 922.36 -62.3075 930.009 -25.1143L1071.47 662.798C1085.92 733.032 1007.79 785.336 948.357 745.221L36.2419 129.568C14.2059 114.695 0.998535 89.8457 0.998535 63.2597V-9.00005Z" fill="url(#paint0_linear)"/>
<path d="M553.674 -92.3002L443.655 -230L3.99976 121.275L114.019 258.975L553.674 -92.3002Z" fill="url(#paint1_linear)" fill-opacity="0.1"/>
<path d="M776.381 -6.81911L666.362 -144.519L181 243.275L291.019 380.975L776.381 -6.81911Z" fill="url(#paint2_linear)" fill-opacity="0.1"/>
<path d="M1062.38 188.7L952.362 51L467 438.794L577.019 576.494L1062.38 188.7Z" fill="url(#paint3_linear)" fill-opacity="0.1"/>
<path d="M1282.38 445.7L1172.36 308L686.998 695.794L797.017 833.494L1282.38 445.7Z" fill="url(#paint4_linear)" fill-opacity="0.1"/>
</g>
<defs>
<linearGradient id="paint0_linear" x1="950.71" y1="-64.6525" x2="569.158" y2="526.667" gradientUnits="userSpaceOnUse">
<stop stop-color="#060091"/>
<stop offset="1" stop-color="#713CE2"/>
</linearGradient>
<linearGradient id="paint1_linear" x1="503.735" y1="-162.354" x2="58.2241" y2="189.129" gradientUnits="userSpaceOnUse">
<stop stop-color="white"/>
<stop offset="1" stop-color="white" stop-opacity="0"/>
</linearGradient>
<linearGradient id="paint2_linear" x1="726.825" y1="-77.1793" x2="234.753" y2="310.529" gradientUnits="userSpaceOnUse">
<stop stop-color="white"/>
<stop offset="1" stop-color="white" stop-opacity="0"/>
</linearGradient>
<linearGradient id="paint3_linear" x1="1012.82" y1="118.337" x2="520.754" y2="506.05" gradientUnits="userSpaceOnUse">
<stop stop-color="white"/>
<stop offset="1" stop-color="white" stop-opacity="0"/>
</linearGradient>
<linearGradient id="paint4_linear" x1="1232.82" y1="375.339" x2="740.753" y2="763.051" gradientUnits="userSpaceOnUse">
<stop stop-color="white"/>
<stop offset="1" stop-color="white" stop-opacity="0"/>
</linearGradient>
<clipPath id="clip0">
<rect width="900" height="834" fill="white"/>
</clipPath>
</defs>
</svg>
