<svg width="278" height="64" viewBox="0 0 278 64" fill="none" xmlns="http://www.w3.org/2000/svg">
<path d="M20.9521 11.27H13.3301V32H8.20312V11.27H0.683594V7.11719H20.9521V11.27ZM33.2227 18.875L37.7515 7.11719H43.2886L34.5898 27.6421L33.8892 28.9922C32.6017 31.2367 30.6307 32.3589 27.9761 32.3589L26.1816 32.2905L26.1304 28.1719C26.4038 28.2174 26.8481 28.2402 27.4634 28.2402C28.1812 28.2402 28.7565 28.1149 29.1895 27.8643C29.6338 27.6136 30.0041 27.1522 30.3003 26.48L30.9326 24.8564L22.1997 7.11719H27.7197L33.2227 18.875ZM65.0439 11.27H57.4219V32H52.2949V11.27H44.7754V7.11719H65.0439V11.27ZM63.5059 29.5732C63.5059 28.7871 63.7679 28.1491 64.292 27.6592C64.8275 27.1693 65.494 26.9243 66.2915 26.9243C67.1004 26.9243 67.7669 27.1693 68.291 27.6592C68.8265 28.1491 69.0942 28.7871 69.0942 29.5732C69.0942 30.348 68.8322 30.9803 68.3081 31.4702C67.784 31.9487 67.1118 32.188 66.2915 32.188C65.4826 32.188 64.8161 31.9487 64.292 31.4702C63.7679 30.9803 63.5059 30.348 63.5059 29.5732ZM73.7598 32V7.11719H82.4756C85.4948 7.11719 87.7848 7.69824 89.3457 8.86035C90.9066 10.0111 91.687 11.703 91.687 13.936C91.687 15.1551 91.3737 16.2318 90.7471 17.166C90.1204 18.0889 89.2489 18.7668 88.1323 19.1997C89.4084 19.5187 90.411 20.1624 91.1401 21.1309C91.8807 22.0993 92.251 23.2842 92.251 24.6855C92.251 27.0781 91.4876 28.8896 89.9609 30.1201C88.4342 31.3506 86.2581 31.9772 83.4326 32H73.7598ZM78.8867 21.165V27.8813H83.2788C84.4865 27.8813 85.4264 27.5965 86.0986 27.0269C86.7822 26.4458 87.124 25.6483 87.124 24.6343C87.124 22.3556 85.9448 21.1992 83.5864 21.165H78.8867ZM78.8867 17.542H82.6807C85.2669 17.4964 86.5601 16.4653 86.5601 14.4487C86.5601 13.3208 86.2297 12.5119 85.5688 12.022C84.9194 11.5207 83.8883 11.27 82.4756 11.27H78.8867V17.542ZM95.0195 22.5835C95.0195 20.7492 95.3727 19.1143 96.0791 17.6787C96.7855 16.2432 97.7995 15.1323 99.1211 14.3462C100.454 13.5601 101.998 13.167 103.752 13.167C106.248 13.167 108.281 13.9303 109.854 15.457C111.437 16.9837 112.32 19.0573 112.502 21.6777L112.537 22.9424C112.537 25.7793 111.745 28.0579 110.161 29.7783C108.577 31.4873 106.453 32.3418 103.787 32.3418C101.121 32.3418 98.9901 31.4873 97.395 29.7783C95.8114 28.0693 95.0195 25.7451 95.0195 22.8057V22.5835ZM99.9585 22.9424C99.9585 24.6969 100.289 26.0413 100.95 26.9756C101.611 27.8984 102.556 28.3599 103.787 28.3599C104.983 28.3599 105.917 27.9041 106.589 26.9927C107.262 26.0698 107.598 24.6001 107.598 22.5835C107.598 20.8631 107.262 19.5301 106.589 18.5845C105.917 17.6388 104.972 17.166 103.752 17.166C102.545 17.166 101.611 17.6388 100.95 18.5845C100.289 19.5187 99.9585 20.9714 99.9585 22.9424ZM124.089 32.3418C121.378 32.3418 119.167 31.5101 117.458 29.8467C115.761 28.1833 114.912 25.9673 114.912 23.1987V22.7202C114.912 20.8631 115.271 19.2054 115.989 17.7471C116.707 16.2773 117.721 15.1494 119.031 14.3633C120.352 13.5658 121.856 13.167 123.542 13.167C126.072 13.167 128.06 13.9645 129.507 15.5596C130.965 17.1546 131.694 19.4162 131.694 22.3442V24.3608H119.919C120.079 25.5685 120.557 26.5369 121.355 27.2661C122.164 27.9953 123.184 28.3599 124.414 28.3599C126.317 28.3599 127.804 27.6706 128.875 26.292L131.301 29.0093C130.561 30.0575 129.558 30.8778 128.293 31.4702C127.029 32.0513 125.627 32.3418 124.089 32.3418ZM123.525 17.166C122.546 17.166 121.748 17.4964 121.133 18.1572C120.529 18.818 120.142 19.7637 119.971 20.9941H126.841V20.6011C126.818 19.5073 126.522 18.6642 125.952 18.0718C125.382 17.4679 124.574 17.166 123.525 17.166ZM150.544 32H145.588V24.8906H139.453V32H134.514V13.5088H139.453V20.9258H145.588V13.5088H150.544V32ZM170.403 32H165.447V24.8906H159.312V32H154.373V13.5088H159.312V20.9258H165.447V13.5088H170.403V32ZM185.374 13.5088H190.312V32H185.374V20.584L179.187 32H174.231V13.5088H179.187V24.9077L185.374 13.5088ZM201.335 25.1812H199.353V32H194.414V13.5088H199.353V20.4644H201.113L205.146 13.5088H211.384L205.334 22.3101L211.948 32H205.369L201.335 25.1812Z" fill="url(#paint0_linear)"/>
<path d="M1.30078 60V47.2031H5.68652C7.13379 47.2031 8.23535 47.4932 8.99121 48.0732C9.74707 48.6533 10.125 49.5176 10.125 50.666C10.125 51.252 9.9668 51.7793 9.65039 52.248C9.33398 52.7168 8.87109 53.0801 8.26172 53.3379C8.95312 53.5254 9.48633 53.8799 9.86133 54.4014C10.2422 54.917 10.4326 55.5381 10.4326 56.2646C10.4326 57.4658 10.0459 58.3887 9.27246 59.0332C8.50488 59.6777 7.40332 60 5.96777 60H1.30078ZM3.52441 54.2256V58.2246H5.99414C6.69141 58.2246 7.23633 58.0518 7.62891 57.7061C8.02148 57.3604 8.21777 56.8799 8.21777 56.2646C8.21777 54.9346 7.53809 54.2549 6.17871 54.2256H3.52441ZM3.52441 52.5908H5.7041C6.39551 52.5908 6.93457 52.4355 7.32129 52.125C7.71387 51.8086 7.91016 51.3633 7.91016 50.7891C7.91016 50.1562 7.72852 49.6992 7.36523 49.418C7.00781 49.1367 6.44824 48.9961 5.68652 48.9961H3.52441V52.5908ZM12.0498 55.1572C12.0498 54.2256 12.2344 53.3877 12.6035 52.6436C12.9727 51.8936 13.4912 51.3193 14.1592 50.9209C14.8271 50.5166 15.5947 50.3145 16.4619 50.3145C17.7451 50.3145 18.7852 50.7275 19.582 51.5537C20.3848 52.3799 20.8184 53.4756 20.8828 54.8408L20.8916 55.3418C20.8916 56.2793 20.71 57.1172 20.3467 57.8555C19.9893 58.5938 19.4736 59.165 18.7998 59.5693C18.1318 59.9736 17.3584 60.1758 16.4795 60.1758C15.1377 60.1758 14.0625 59.7305 13.2539 58.8398C12.4512 57.9434 12.0498 56.751 12.0498 55.2627V55.1572ZM14.1855 55.3418C14.1855 56.3203 14.3877 57.0879 14.792 57.6445C15.1963 58.1953 15.7588 58.4707 16.4795 58.4707C17.2002 58.4707 17.7598 58.1895 18.1582 57.627C18.5625 57.0645 18.7646 56.2412 18.7646 55.1572C18.7646 54.1963 18.5566 53.4346 18.1406 52.8721C17.7305 52.3096 17.1709 52.0283 16.4619 52.0283C15.7646 52.0283 15.2109 52.3066 14.8008 52.8633C14.3906 53.4141 14.1855 54.2402 14.1855 55.3418ZM26.8857 60.1758C25.5322 60.1758 24.4336 59.751 23.5898 58.9014C22.752 58.0459 22.333 56.9092 22.333 55.4912V55.2275C22.333 54.2783 22.5146 53.4316 22.8779 52.6875C23.2471 51.9375 23.7627 51.3545 24.4248 50.9385C25.0869 50.5225 25.8252 50.3145 26.6396 50.3145C27.9346 50.3145 28.9336 50.7275 29.6367 51.5537C30.3457 52.3799 30.7002 53.5488 30.7002 55.0605V55.9219H24.4863C24.5508 56.707 24.8115 57.3281 25.2686 57.7852C25.7314 58.2422 26.3115 58.4707 27.0088 58.4707C27.9873 58.4707 28.7842 58.0752 29.3994 57.2842L30.5508 58.3828C30.1699 58.9512 29.6602 59.3936 29.0215 59.71C28.3887 60.0205 27.6768 60.1758 26.8857 60.1758ZM26.6309 52.0283C26.0449 52.0283 25.5703 52.2334 25.207 52.6436C24.8496 53.0537 24.6211 53.625 24.5215 54.3574H28.5908V54.1992C28.5439 53.4844 28.3535 52.9453 28.0195 52.582C27.6855 52.2129 27.2227 52.0283 26.6309 52.0283ZM40.4209 60H38.2852V56.1592H34.585V60H32.4492V50.4902H34.585V54.4541H38.2852V50.4902H40.4209V60ZM50.7568 60H48.6211V56.1592H44.9209V60H42.7852V50.4902H44.9209V54.4541H48.6211V50.4902H50.7568V60ZM55.3359 53.5137H57.4277C58.207 53.5137 58.8867 53.6484 59.4668 53.918C60.0469 54.1875 60.4863 54.5654 60.7852 55.0518C61.0898 55.5381 61.2422 56.1035 61.2422 56.748C61.2422 57.7266 60.8965 58.5117 60.2051 59.1035C59.5137 59.6953 58.5938 59.9941 57.4453 60H53.2002V50.4902H55.3359V53.5137ZM64.96 60H62.8242V50.4902H64.96V60ZM55.3359 55.2275V58.2949H57.4189C57.9404 58.2949 58.3506 58.166 58.6494 57.9082C58.9541 57.6445 59.1064 57.2725 59.1064 56.792C59.1064 56.3115 58.957 55.9336 58.6582 55.6582C58.3652 55.377 57.9668 55.2334 57.4629 55.2275H55.3359ZM73.459 50.4902H75.5859V60H73.459V53.6543L69.7324 60H67.6055V50.4902H69.7324V56.8359L73.459 50.4902ZM74.4609 46.8428C74.4609 47.5811 74.2031 48.1787 73.6875 48.6357C73.1719 49.0928 72.4834 49.3213 71.6221 49.3213C70.7607 49.3213 70.0723 49.0928 69.5566 48.6357C69.041 48.1787 68.7832 47.5811 68.7832 46.8428H70.3828C70.3828 47.2295 70.4912 47.5312 70.708 47.748C70.9307 47.959 71.2354 48.0645 71.6221 48.0645C72.0088 48.0645 72.3105 47.959 72.5273 47.748C72.7441 47.5312 72.8525 47.2295 72.8525 46.8428H74.4609ZM86.8184 51.0176C88.0137 51.0176 88.9717 51.4189 89.6924 52.2217C90.4131 53.0186 90.7734 54.1025 90.7734 55.4736V55.5791C90.7734 56.9502 90.3809 58.0605 89.5957 58.9102C88.8164 59.7598 87.7559 60.1846 86.4141 60.1846C85.1074 60.1846 84.0527 59.751 83.25 58.8838C82.4473 58.0166 82.0459 56.833 82.0459 55.333V54.7178C82.0459 52.667 82.4092 51.0439 83.1357 49.8486C83.8623 48.6533 84.9463 47.9062 86.3877 47.6074C87.1963 47.4434 87.7178 47.2705 87.9521 47.0889C88.1924 46.9014 88.3125 46.6494 88.3125 46.333H90.0352C90.0352 46.9248 89.9385 47.4053 89.7451 47.7744C89.5518 48.1436 89.2559 48.4453 88.8574 48.6797C88.459 48.9082 87.7734 49.125 86.8008 49.3301C85.9102 49.5176 85.2305 49.8516 84.7617 50.332C84.2988 50.8125 83.9883 51.4775 83.8301 52.3271C84.6797 51.4541 85.6758 51.0176 86.8184 51.0176ZM86.3965 52.7314C85.7051 52.7314 85.1631 52.9658 84.7705 53.4346C84.3779 53.8975 84.1816 54.6123 84.1816 55.5791C84.1816 56.4932 84.375 57.2051 84.7617 57.7148C85.1484 58.2246 85.6992 58.4795 86.4141 58.4795C87.123 58.4795 87.6709 58.2246 88.0576 57.7148C88.4502 57.1992 88.6465 56.4258 88.6465 55.3945C88.6465 54.5742 88.4502 53.9268 88.0576 53.4521C87.6709 52.9717 87.1172 52.7314 86.3965 52.7314ZM98.2266 50.4902H100.354V60H98.2266V53.6543L94.5 60H92.373V50.4902H94.5V56.8359L98.2266 50.4902ZM110.707 50.4902V60H108.571V52.2129H105.882L105.706 55.5264C105.595 57.1201 105.287 58.2656 104.783 58.9629C104.285 59.6543 103.521 60 102.489 60H101.83L101.821 58.2246L102.261 58.1807C102.729 58.1162 103.069 57.832 103.28 57.3281C103.497 56.8184 103.635 55.8926 103.693 54.5508L103.869 50.4902H110.707ZM117.167 60.1758C115.813 60.1758 114.715 59.751 113.871 58.9014C113.033 58.0459 112.614 56.9092 112.614 55.4912V55.2275C112.614 54.2783 112.796 53.4316 113.159 52.6875C113.528 51.9375 114.044 51.3545 114.706 50.9385C115.368 50.5225 116.106 50.3145 116.921 50.3145C118.216 50.3145 119.215 50.7275 119.918 51.5537C120.627 52.3799 120.981 53.5488 120.981 55.0605V55.9219H114.768C114.832 56.707 115.093 57.3281 115.55 57.7852C116.013 58.2422 116.593 58.4707 117.29 58.4707C118.269 58.4707 119.065 58.0752 119.681 57.2842L120.832 58.3828C120.451 58.9512 119.941 59.3936 119.303 59.71C118.67 60.0205 117.958 60.1758 117.167 60.1758ZM116.912 52.0283C116.326 52.0283 115.852 52.2334 115.488 52.6436C115.131 53.0537 114.902 53.625 114.803 54.3574H118.872V54.1992C118.825 53.4844 118.635 52.9453 118.301 52.582C117.967 52.2129 117.504 52.0283 116.912 52.0283ZM130.025 52.1865H126.94V60H124.805V52.1865H121.755V50.4902H130.025V52.1865ZM143.139 53.0918C143.139 53.5137 143.01 53.9033 142.752 54.2607C142.5 54.6123 142.143 54.8936 141.68 55.1045C142.77 55.4854 143.314 56.2207 143.314 57.3105C143.314 58.1836 142.96 58.8809 142.251 59.4023C141.542 59.918 140.593 60.1758 139.403 60.1758C138.677 60.1758 138.015 60.0557 137.417 59.8154C136.819 59.5693 136.354 59.2236 136.02 58.7783C135.686 58.3271 135.519 57.7939 135.519 57.1787H137.646C137.646 57.5654 137.818 57.8906 138.164 58.1543C138.51 58.4121 138.946 58.541 139.474 58.541C139.995 58.541 140.408 58.4209 140.713 58.1807C141.023 57.9346 141.179 57.6152 141.179 57.2227C141.179 56.7598 141.044 56.4258 140.774 56.2207C140.505 56.0156 140.089 55.9131 139.526 55.9131H137.997V54.375H139.579C140.534 54.3633 141.012 53.9707 141.012 53.1973C141.012 52.8105 140.874 52.5088 140.599 52.292C140.323 52.0752 139.945 51.9668 139.465 51.9668C138.996 51.9668 138.601 52.084 138.278 52.3184C137.956 52.5469 137.795 52.8369 137.795 53.1885H135.668C135.668 52.3506 136.02 51.665 136.723 51.1318C137.426 50.5928 138.319 50.3232 139.403 50.3232C140.581 50.3232 141.498 50.5635 142.154 51.0439C142.811 51.5244 143.139 52.207 143.139 53.0918ZM150.812 60C150.718 59.8184 150.636 59.5225 150.565 59.1123C149.886 59.8213 149.054 60.1758 148.069 60.1758C147.114 60.1758 146.335 59.9033 145.731 59.3584C145.128 58.8135 144.826 58.1396 144.826 57.3369C144.826 56.3232 145.201 55.5469 145.951 55.0078C146.707 54.4629 147.785 54.1904 149.186 54.1904H150.495V53.5664C150.495 53.0742 150.357 52.6816 150.082 52.3887C149.807 52.0898 149.388 51.9404 148.825 51.9404C148.339 51.9404 147.94 52.0635 147.63 52.3096C147.319 52.5498 147.164 52.8574 147.164 53.2324H145.028C145.028 52.7109 145.201 52.2246 145.547 51.7734C145.893 51.3164 146.361 50.959 146.953 50.7012C147.551 50.4434 148.216 50.3145 148.948 50.3145C150.062 50.3145 150.949 50.5957 151.611 51.1582C152.273 51.7148 152.613 52.5 152.631 53.5137V57.8027C152.631 58.6582 152.751 59.3408 152.991 59.8506V60H150.812ZM148.465 58.4619C148.887 58.4619 149.282 58.3594 149.651 58.1543C150.026 57.9492 150.308 57.6738 150.495 57.3281V55.5352H149.344C148.553 55.5352 147.958 55.6729 147.56 55.9482C147.161 56.2236 146.962 56.6133 146.962 57.1172C146.962 57.5273 147.097 57.8555 147.366 58.1016C147.642 58.3418 148.008 58.4619 148.465 58.4619ZM158.247 56.2383H157.166V60H155.03V50.4902H157.166V54.2871H158.106L160.734 50.4902H163.371L159.935 55.043L163.661 60H160.884L158.247 56.2383ZM163.925 55.1572C163.925 54.2256 164.109 53.3877 164.479 52.6436C164.848 51.8936 165.366 51.3193 166.034 50.9209C166.702 50.5166 167.47 50.3145 168.337 50.3145C169.62 50.3145 170.66 50.7275 171.457 51.5537C172.26 52.3799 172.693 53.4756 172.758 54.8408L172.767 55.3418C172.767 56.2793 172.585 57.1172 172.222 57.8555C171.864 58.5938 171.349 59.165 170.675 59.5693C170.007 59.9736 169.233 60.1758 168.354 60.1758C167.013 60.1758 165.938 59.7305 165.129 58.8398C164.326 57.9434 163.925 56.751 163.925 55.2627V55.1572ZM166.061 55.3418C166.061 56.3203 166.263 57.0879 166.667 57.6445C167.071 58.1953 167.634 58.4707 168.354 58.4707C169.075 58.4707 169.635 58.1895 170.033 57.627C170.438 57.0645 170.64 56.2412 170.64 55.1572C170.64 54.1963 170.432 53.4346 170.016 52.8721C169.605 52.3096 169.046 52.0283 168.337 52.0283C167.64 52.0283 167.086 52.3066 166.676 52.8633C166.266 53.4141 166.061 54.2402 166.061 55.3418ZM182.628 60H180.492V56.1592H176.792V60H174.656V50.4902H176.792V54.4541H180.492V50.4902H182.628V60ZM192.964 60H190.828V56.1592H187.128V60H184.992V50.4902H187.128V54.4541H190.828V50.4902H192.964V60ZM197.543 53.5137H199.635C200.414 53.5137 201.094 53.6484 201.674 53.918C202.254 54.1875 202.693 54.5654 202.992 55.0518C203.297 55.5381 203.449 56.1035 203.449 56.748C203.449 57.7266 203.104 58.5117 202.412 59.1035C201.721 59.6953 200.801 59.9941 199.652 60H195.407V50.4902H197.543V53.5137ZM207.167 60H205.031V50.4902H207.167V60ZM197.543 55.2275V58.2949H199.626C200.147 58.2949 200.558 58.166 200.856 57.9082C201.161 57.6445 201.313 57.2725 201.313 56.792C201.313 56.3115 201.164 55.9336 200.865 55.6582C200.572 55.377 200.174 55.2334 199.67 55.2275H197.543ZM215.376 57.3721L218.188 50.4902H220.86V60H218.725V53.707L216.105 60H214.655L212.027 53.6719V60H209.892V50.4902H212.581L215.376 57.3721ZM235.811 60H233.675V52.2129H229.966V60H227.83V50.4902H235.811V60ZM241.409 56.9414L243.343 50.4902H245.619L241.84 61.4414C241.26 63.041 240.275 63.8408 238.887 63.8408C238.576 63.8408 238.233 63.7881 237.858 63.6826V62.0303L238.263 62.0566C238.802 62.0566 239.206 61.957 239.476 61.7578C239.751 61.5645 239.968 61.2363 240.126 60.7734L240.434 59.9561L237.094 50.4902H239.396L241.409 56.9414ZM254.338 52.1865H251.253V60H249.117V52.1865H246.067V50.4902H254.338V52.1865ZM259.392 60.1758C258.038 60.1758 256.939 59.751 256.096 58.9014C255.258 58.0459 254.839 56.9092 254.839 55.4912V55.2275C254.839 54.2783 255.021 53.4316 255.384 52.6875C255.753 51.9375 256.269 51.3545 256.931 50.9385C257.593 50.5225 258.331 50.3145 259.146 50.3145C260.44 50.3145 261.439 50.7275 262.143 51.5537C262.852 52.3799 263.206 53.5488 263.206 55.0605V55.9219H256.992C257.057 56.707 257.317 57.3281 257.774 57.7852C258.237 58.2422 258.817 58.4707 259.515 58.4707C260.493 58.4707 261.29 58.0752 261.905 57.2842L263.057 58.3828C262.676 58.9512 262.166 59.3936 261.527 59.71C260.895 60.0205 260.183 60.1758 259.392 60.1758ZM259.137 52.0283C258.551 52.0283 258.076 52.2334 257.713 52.6436C257.355 53.0537 257.127 53.625 257.027 54.3574H261.097V54.1992C261.05 53.4844 260.859 52.9453 260.525 52.582C260.191 52.2129 259.729 52.0283 259.137 52.0283ZM270.519 57.3721L273.331 50.4902H276.003V60H273.867V53.707L271.248 60H269.798L267.17 53.6719V60H265.034V50.4902H267.724L270.519 57.3721Z" fill="black"/>
<defs>
<linearGradient id="paint0_linear" x1="233" y1="-6.49997" x2="-11" y2="55" gradientUnits="userSpaceOnUse">
<stop stop-color="#0800CA"/>
<stop offset="1" stop-color="#5C00B9"/>
</linearGradient>
</defs>
</svg>
